<?xml version="1.0" encoding="UTF-8"?>
<svg id="Layer_2" data-name="Layer 2" xmlns="http://www.w3.org/2000/svg" viewBox="0 0 91.09 58.5">
  <defs>
    <style>
      .cls-1 {
        fill: #6f7dab;
      }

      .cls-1, .cls-2, .cls-3 {
        stroke-width: 0px;
      }

      .cls-2 {
        fill: #fff;
      }

      .cls-3 {
        fill: #e98c6e;
      }
    </style>
  </defs>
  <g id="Layer_1-2" data-name="Layer 1">
    <g>
      <path class="cls-3" d="m11.07,26.16c4.65-3.66,10.64-4.26,16.56-1.73-.46-5.57,1.54-10.51,5.57-13.67,4.26-3.33,10.21-4.19,15.16-2.19.49.2.96.42,1.41.67C45.07,3.69,38.03,0,29.14,0,14.09,0,.36,12.7,0,27.35c-.14,5.72,1.78,11.35,5.04,16.08-.03-.11-.06-.23-.08-.34-1.37-6.18,1.09-12.98,6.11-16.93Z"/>
      <path class="cls-2" d="m82.83,36.81c-.46-.13-.82-.48-.98-.93-.16-.45-.1-.95.16-1.34,5.08-7.66,2.03-13.64-2.51-16.68-6.37-4.27-16.32-3.73-21.94,4.56-.57.92-1.39.87-1.71.8-.51-.11-1.1-.52-1.22-1.36-.72-5.14-3.34-8.87-7.38-10.5-3.97-1.6-8.75-.91-12.18,1.77-3.5,2.74-5.04,7.03-4.32,12.08.11.87-.26,1.7-.95,2.19-.72.51-1.66.59-2.45.2-7.1-3.48-12.07-.91-14.41.92-4.13,3.25-6.16,8.85-5.03,13.93,1.24,5.6,5.97,9.65,13.31,11.38,5.93,1.21,18.32,1.52,18.45,1.52.25,0,20.43.47,30.03-.25,4.07-.31,8.28-.62,11.92-2.57,2.93-1.57,6.39-5.09,6.48-9.85.07-3.58-1.87-4.86-5.26-5.86Z"/>
      <path class="cls-1" d="m85.51,34.54c4.8-8.73.81-15.72-4.35-19.17-6.91-4.64-17.35-4.54-24.23,3-1.23-4.13-3.7-7.28-7.15-9.13-.45-.24-.92-.47-1.41-.67-4.95-2-10.9-1.14-15.16,2.19-4.04,3.16-6.03,8.1-5.57,13.67-5.93-2.54-11.91-1.93-16.56,1.73-5.02,3.95-7.47,10.75-6.11,16.93.02.11.06.22.08.34.97,3.98,4.28,10.68,15.52,13.32,6.23,1.27,18.5,1.58,19.01,1.59h0c.47.01,6.82.16,14.04.16,5.72,0,11.98-.09,16.29-.42,4.17-.31,8.91-.67,13.11-2.91,4.81-2.56,7.97-7.45,8.07-12.44.11-5.13-3.1-7.21-5.58-8.19Zm-3.9,17.98c-3.65,1.95-7.85,2.26-11.92,2.57-9.6.72-29.78.26-30.03.25-.12,0-12.51-.32-18.45-1.52-7.35-1.73-12.08-5.77-13.31-11.38-1.12-5.08.9-10.68,5.03-13.93,2.34-1.84,7.31-4.4,14.41-.92.8.39,1.74.32,2.45-.2.7-.5,1.06-1.33.95-2.19-.72-5.05.82-9.34,4.32-12.08,3.43-2.68,8.21-3.38,12.18-1.77,4.04,1.63,6.66,5.36,7.38,10.5.12.84.71,1.25,1.22,1.36.32.07,1.14.12,1.71-.8,5.62-8.29,15.57-8.83,21.94-4.56,4.54,3.04,7.59,9.03,2.51,16.68-.26.4-.32.9-.16,1.34.16.45.53.79.98.93,3.39,1,5.33,2.28,5.26,5.86-.09,4.77-3.55,8.29-6.48,9.85Z"/>
    </g>
  </g>
</svg>