<?xml version="1.0" encoding="UTF-8"?>
<svg id="Layer_2" data-name="Layer 2" xmlns="http://www.w3.org/2000/svg" viewBox="0 0 83.5 48">
  <defs>
    <style>
      .cls-1 {
        fill: #6f7dab;
        stroke-width: 0px;
      }
    </style>
  </defs>
  <g id="Layer_1-2" data-name="Layer 1">
    <path class="cls-1" d="m33.53,47.84s-12.58-.31-18.75-1.56C-11.73,40.04,1.64,7.32,21.91,17.25c.62.31,1.34-.17,1.26-.83-2.68-18.89,24.14-23.22,26.85-3.77.02.15.07.14.2-.07,11.37-16.77,38.69-3.93,26.94,13.8,3.27.97,6.43,2.47,6.33,7.33-.09,4.89-3.4,9.08-7.27,11.15-3.87,2.07-8.25,2.42-12.52,2.74-9.8.74-30.18.25-30.18.25Z"/>
  </g>
</svg>