<?xml version="1.0" encoding="UTF-8"?>
<svg id="Layer_2" data-name="Layer 2" xmlns="http://www.w3.org/2000/svg" viewBox="0 0 70.25 63.46">
  <defs>
    <style>
      .cls-1 {
        fill: #6f7dab;
        stroke-width: 0px;
      }
    </style>
  </defs>
  <g id="Layer_1-2" data-name="Layer 1">
    <g>
      <path class="cls-1" d="m64.92,22.19c9.89-14.92-13.1-25.72-22.67-11.61-.11.18-.15.18-.17.06-2.28-16.36-24.85-12.72-22.59,3.17.07.56-.53.96-1.06.7C1.38,6.16-9.86,33.69,12.43,38.94c5.2,1.06,15.78,1.31,15.78,1.31,0,0,17.15.41,25.39-.21,3.59-.27,7.27-.57,10.53-2.31,3.26-1.74,6.04-5.27,6.12-9.38.08-4.09-2.58-5.35-5.33-6.17Z"/>
      <path class="cls-1" d="m13.74,42.3c-.39.03-.73.26-.9.61-.23.45-.47.89-.72,1.33-.52.93-1.06,1.89-1.43,2.92-1.03,2.8.21,4.78,1.59,5.61.67.4,1.4.6,2.11.6.96,0,1.87-.36,2.51-1.06,1.02-1.12,2.09-3.84-2.16-9.56-.23-.31-.61-.48-.99-.45Z"/>
      <path class="cls-1" d="m23.53,46.65c-.46.03-.85.33-1.02.75-.21.54-.44,1.08-.67,1.62-.47,1.11-.96,2.27-1.3,3.48h0c-.99,3.55.39,5.83,1.87,6.71.55.33,1.14.49,1.71.49.77,0,1.52-.29,2.1-.87.96-.94,2.72-3.95-1.59-11.58-.23-.4-.66-.63-1.11-.6Z"/>
      <path class="cls-1" d="m42.35,43.45c-.47.04-.88.33-1.06.77-.23.56-.48,1.11-.72,1.66-.51,1.14-1.05,2.33-1.42,3.57h0c-1.07,3.6.38,5.96,1.94,6.89.61.36,1.26.54,1.9.54.87,0,1.71-.33,2.34-.97.99-1,2.8-4.14-1.82-11.85-.24-.4-.7-.64-1.16-.6Z"/>
      <path class="cls-1" d="m54.24,47.81c-.54.03-1,.39-1.16.91-.21.67-.44,1.33-.67,1.99-.47,1.35-.95,2.75-1.29,4.21h0c-.96,4.17.38,7.08,2.14,8.1.51.3,1.05.45,1.58.45.7,0,1.39-.26,1.95-.77,2.32-2.1,1.84-7.38-1.28-14.12-.23-.49-.72-.79-1.27-.75Z"/>
    </g>
  </g>
</svg>