<?xml version="1.0" encoding="UTF-8"?>
<svg id="Layer_2" data-name="Layer 2" xmlns="http://www.w3.org/2000/svg" viewBox="0 0 60.59 61.06">
  <defs>
    <style>
      .cls-1 {
        fill: #6f7dab;
        stroke-width: 0px;
      }
    </style>
  </defs>
  <g id="Layer_1-2" data-name="Layer 1">
    <path class="cls-1" d="m59.31,24.27c-2.73-.62-5.69-1.35-8.62-2.09,3.02-1.46,6.05-2.92,9.07-4.36.75-.36,1.04-1.24.68-1.98-.35-.73-1.24-1.04-1.98-.72h0c-3.23,1.55-6.47,3.11-9.7,4.67.76-2.96,1.46-5.9,2.13-8.76.19-.81-.31-1.61-1.12-1.8-.8-.19-1.61.31-1.8,1.12-.85,3.64-1.74,7.39-2.75,11.16-4.52,2.19-9.03,4.38-13.53,6.58,0-4.32.01-8.65.03-12.98l1.19-1.07c2.55-2.29,5.18-4.67,7.51-6.87.6-.57.63-1.52.06-2.12-.57-.6-1.52-.63-2.12-.06-2.05,1.94-4.35,4.02-6.62,6.06.02-3.18.04-6.36.07-9.52h0c0-.84-.67-1.51-1.49-1.51-.8,0-1.5.66-1.51,1.49-.03,3.22-.05,6.44-.07,9.66-2.65-2.1-5.31-4.14-7.9-6.11-.66-.5-1.6-.38-2.1.28-.5.66-.37,1.6.28,2.1,3.18,2.42,6.47,4.94,9.69,7.54-.02,4.37-.03,8.74-.04,13.1-3.8-1.94-7.6-3.87-11.39-5.79-.93-3.74-1.74-7.49-2.52-11.13v-.04c-.18-.81-.98-1.31-1.79-1.13-.81.17-1.32.99-1.15,1.8.61,2.85,1.26,5.77,1.95,8.72-3.85-1.95-7.69-3.89-11.49-5.82l-.11-.06c-.74-.37-1.64-.08-2.02.66-.37.74-.08,1.64.66,2.02l.11.06c3.62,1.83,7.28,3.68,10.94,5.54-2.97.69-5.96,1.38-8.73,1.97-.81.17-1.33.97-1.16,1.78.15.71.77,1.19,1.47,1.19.1,0,.21-.01.31-.03,3.33-.71,7.15-1.6,10.51-2.39l1.75-.41c3.57,1.81,7.16,3.63,10.75,5.46-3.52,1.72-7.03,3.44-10.52,5.15-4.18-1.26-8.27-2.62-12.24-3.93-.79-.26-1.64.16-1.9.95-.26.79.16,1.64.95,1.9,3.01,1,6.12,2.02,9.26,3.01-3.76,1.85-7.51,3.69-11.23,5.52-.74.37-1.05,1.26-.68,2.01.26.53.79.84,1.35.84.22,0,.45-.05.66-.15,3.84-1.89,7.72-3.79,11.61-5.71-.89,2.65-1.8,5.32-2.68,7.75-.28.78.12,1.64.9,1.92.17.06.34.09.51.09.61,0,1.19-.38,1.41-.99,1.05-2.88,2.12-6.09,3.16-9.18l.49-1.45c3.6-1.77,7.21-3.54,10.84-5.31,0,3.72,0,7.43,0,11.13-3.22,2.6-6.49,5.1-9.67,7.52-.66.5-.79,1.44-.28,2.1.5.66,1.44.79,2.1.28,2.58-1.96,5.22-3.99,7.86-6.08,0,3.93.02,7.84.03,11.72,0,.83.67,1.5,1.5,1.5h0c.83,0,1.5-.68,1.5-1.5-.01-3.86-.02-7.76-.03-11.67,2.28,2.06,4.59,4.15,6.66,6.1.29.27.66.41,1.03.41.4,0,.8-.16,1.09-.47.57-.6.54-1.55-.06-2.12-2.34-2.21-5.11-4.7-7.55-6.9l-1.18-1.06c0-3.61,0-7.24,0-10.87,4.23,2.16,8.46,4.32,12.68,6.49l.46,1.45c.98,3.1,1.99,6.31,2.98,9.21.21.62.8,1.02,1.42,1.02.16,0,.32-.03.49-.08.78-.27,1.2-1.12.93-1.9-.83-2.43-1.68-5.11-2.52-7.75,3.14,1.62,6.27,3.23,9.39,4.85l.19-.37-.17.38c.22.11.44.16.67.16.55,0,1.07-.3,1.34-.82.37-.73.09-1.63-.65-2.01-3.02-1.57-6.05-3.13-9.08-4.7,3.19-.95,6.33-1.93,9.38-2.89.79-.25,1.23-1.09.98-1.88-.25-.79-1.09-1.23-1.88-.98-4,1.26-8.13,2.56-12.35,3.76-4.14-2.13-8.28-4.25-12.43-6.36,4.32-2.11,8.64-4.21,12.97-6.3l1.75.44c3.5.87,7.12,1.78,10.42,2.53.11.03.23.04.34.04.68,0,1.3-.47,1.46-1.17.18-.81-.32-1.61-1.13-1.8Z"/>
  </g>
</svg>