<?xml version="1.0" encoding="UTF-8"?>
<svg id="Layer_2" data-name="Layer 2" xmlns="http://www.w3.org/2000/svg" viewBox="0 0 60.56 60.56">
  <defs>
    <style>
      .cls-1 {
        fill: #e98c6e;
        stroke-width: 0px;
      }
    </style>
  </defs>
  <g id="Layer_1-2" data-name="Layer 1">
    <g>
      <path class="cls-1" d="m30.29,18.59h0c.57,0,1.03-.46,1.03-1.03l-.02-16.54c0-.57-.46-1.03-1.03-1.03h0c-.57,0-1.03.46-1.03,1.03l.02,16.54c0,.57.46,1.03,1.03,1.03Z"/>
      <path class="cls-1" d="m23.04,19.78c.19.33.53.51.89.51.17,0,.35-.04.51-.14.49-.28.66-.91.37-1.4l-8.29-14.32c-.28-.49-.91-.66-1.4-.37-.49.28-.66.91-.37,1.4l8.29,14.32Z"/>
      <path class="cls-1" d="m4.43,16.55l14.33,8.25c.16.09.34.14.51.14.35,0,.7-.18.89-.51.28-.49.11-1.12-.38-1.4L5.45,14.77c-.49-.28-1.12-.11-1.4.38-.28.49-.11,1.12.38,1.4Z"/>
      <path class="cls-1" d="m18.59,30.27c0-.57-.46-1.03-1.03-1.03h0l-16.54.02C.46,29.26,0,29.72,0,30.29c0,.57.46,1.03,1.03,1.03h0l16.54-.02c.57,0,1.03-.46,1.03-1.03Z"/>
      <path class="cls-1" d="m20.15,36.11c-.28-.49-.91-.66-1.4-.37l-14.31,8.29c-.49.28-.66.91-.37,1.4.19.33.53.51.89.51.17,0,.35-.04.51-.14l14.31-8.29c.49-.28.66-.91.37-1.4Z"/>
      <path class="cls-1" d="m24.43,40.39c-.49-.28-1.12-.11-1.4.38l-8.25,14.33c-.28.49-.11,1.12.38,1.4.16.09.34.14.51.14.35,0,.7-.18.89-.51l8.25-14.33c.28-.49.11-1.12-.38-1.4Z"/>
      <path class="cls-1" d="m30.27,41.96h0c-.57,0-1.03.46-1.03,1.03l.02,16.54c0,.57.46,1.03,1.03,1.03h0c.57,0,1.03-.46,1.03-1.03l-.02-16.54c0-.57-.46-1.03-1.03-1.03Z"/>
      <path class="cls-1" d="m37.51,40.78c-.28-.49-.91-.66-1.4-.37-.49.28-.66.91-.37,1.4l8.29,14.32c.19.33.53.51.89.51.17,0,.35-.04.51-.14.49-.28.66-.91.37-1.4l-8.29-14.32Z"/>
      <path class="cls-1" d="m56.13,44.01l-14.33-8.25c-.49-.28-1.12-.11-1.4.38-.28.49-.11,1.12.38,1.4l14.33,8.25c.16.09.34.14.51.14.35,0,.7-.18.89-.51.28-.49.11-1.12-.38-1.4Z"/>
      <path class="cls-1" d="m59.53,29.24h0l-16.54.02c-.57,0-1.03.46-1.03,1.03,0,.57.46,1.03,1.03,1.03h0l16.54-.02c.57,0,1.03-.46,1.03-1.03,0-.57-.46-1.03-1.03-1.03Z"/>
      <path class="cls-1" d="m40.4,24.45c.19.33.53.51.89.51.17,0,.35-.04.51-.14l14.31-8.29c.49-.28.66-.91.37-1.4-.28-.49-.91-.66-1.4-.37l-14.31,8.29c-.49.28-.66.91-.37,1.4Z"/>
      <path class="cls-1" d="m36.13,20.17c.16.09.34.14.51.14.35,0,.7-.18.89-.51l8.25-14.33c.28-.49.11-1.12-.38-1.4-.49-.28-1.12-.12-1.4.38l-8.25,14.33c-.28.49-.11,1.12.38,1.4Z"/>
      <circle class="cls-1" cx="30.4" cy="30.1" r="10.32" transform="translate(-12.38 30.31) rotate(-45)"/>
    </g>
  </g>
</svg>